<?xml version="1.0" encoding="utf-8"?>
<!-- Generator: Adobe Illustrator 18.1.1, SVG Export Plug-In . SVG Version: 6.00 Build 0)  -->
<svg version="1.1" id="Capa_1" xmlns="http://www.w3.org/2000/svg" xmlns:xlink="http://www.w3.org/1999/xlink" x="0px" y="0px"
	 viewBox="0 144.3 841.9 304.5" enable-background="new 0 144.3 841.9 304.5" xml:space="preserve">
<g>
	<path fill="#FFFFFF" d="M628.6,279.7c-22.6,0-42,8.2-58.1,24.7c-16.6,16.6-24.3,36.5-24.3,59.6c0,23.1,7.9,43,24.3,59.1
		c16.1,16.6,35.5,24.7,58.1,24.7s42.5-8.2,59.1-24.7c16.1-16.1,24.3-36,24.3-59.1s-8.2-43-24.3-59.6
		C671.1,287.9,651.7,279.7,628.6,279.7z M659.8,394.7c-8.2,8.6-18.7,13-30.7,13c-11.8,0-22.1-4.3-30.7-13c-8.2-8.6-13-19.2-13-31.2
		c0-12.5,4.8-23.1,13-31.2c8.2-8.6,18.7-13,30.7-12.5c12.3-0.5,22.6,3.8,31.2,12.5c8.2,8.2,12.3,18.7,12.5,31.2
		C672.6,375.8,668.2,386.1,659.8,394.7z"/>
	<path fill="#FFFFFF" d="M104,278c12.3,0,23.5,3.4,34.3,10.3c9.6,6.5,17.3,15.6,22.6,26.4h41.8c-6-22.1-17.8-40.8-36-54.7
		c-18.3-14.6-39.6-21.6-62.5-21.6c-28.6,0-52.1,10.1-72.1,30.5c-20.4,20.4-30.5,44.7-30.5,73.5c0,28.3,10.1,53.3,30.5,73.7
		c19.9,19.9,44,30,72.5,30c23.1,0,44.2-7,62.5-21.4c17.8-14.6,30-32.7,36-54.7h-41.8c-5.3,10.8-13,19.5-22.6,26.4
		c-10.8,6.5-21.6,10.1-34.3,10.1c-17.8,0-32.7-6.5-44.7-18.7c-12.5-12.5-18.7-27.4-18.3-45.1c-0.5-17.8,5.8-32.7,18.3-45.1
		C71.3,284.5,86.5,278,104,278z"/>
	<path fill="#FFFFFF" d="M403.5,289.8c-13.9-7.4-29.1-10.8-46.4-10.3c-26.9-0.5-45.6,7-56.4,21.4c-7,8.6-10.3,20.4-11.3,34.8h39.9
		c1-7,3.1-11.8,5.8-14.6c4.3-5.3,11.3-8.2,21.4-7.9c8.2-0.5,14.7,1.2,19.5,3.8c4.8,2.2,6.5,7,7,13.4c0,5.3-3.1,9.6-9.1,12.2
		l-30.7,4.8c-14.4,1.7-25.7,5.3-34.3,10.3c-14.7,8.6-22.1,23.1-21.6,43.5c-0.5,14.4,4.3,25.7,13.5,34.3c8.2,7,19.2,10.8,32.7,11.3
		c21.6-0.5,39.2-5.8,51.2-16.6v16.6h39.9V329.2C423.7,310.2,416.7,296.8,403.5,289.8z M381.4,381.3c0,13.9-3.8,23.5-11.3,28.6
		c-7.9,5.3-15.6,8.2-24.7,8.2c-5.8,0-10.3-1.7-14.4-4.8c-3.8-3.4-5.8-8.2-5.8-15.6c0-8.2,3.1-13.9,9.6-18.2
		c3.8-2.2,10.3-4.3,18.7-5.3l19.9-5.3l7.9-4.3V381.3z"/>
	<rect x="222.9" y="238.4" fill="#FFFFFF" width="39.9" height="208"/>
	<path fill="#FFFFFF" d="M531.8,281.2l-15.1,4.3c-10.8,4.3-20.4,11.8-28.3,22.6v-20.4l-37.7-0.5v159.7h39.6v-76.4
		c0-13,1.7-22.1,5.3-28.3c2.6-6,7.9-11.3,13.9-15.1c7-4.8,14.4-7,21.6-7l12.3,1l-0.5-40.8L531.8,281.2z"/>
	<polygon fill="#FFFFFF" points="789.8,164.2 693.7,260.7 718.9,285.7 815,189.4 	"/>
	<rect x="615.6" y="144.3" fill="#FFFFFF" width="35.5" height="103.3"/>
	<rect x="736.4" y="325.8" fill="#FFFFFF" width="105.4" height="35.5"/>
</g>
</svg>
