<svg xmlns="http://www.w3.org/2000/svg" viewBox="0 0 1003 242">
  <defs/>
  <switch>
    <g>
      <circle cx="36.8" cy="36.8" r="35.8" fill="#06F"/>
      <circle cx="121" cy="36.8" r="35.8" fill="#06F"/>
      <circle cx="205.2" cy="36.8" r="35.8" fill="#06F"/>
      <circle cx="121" cy="121" r="35.8" fill="#06F"/>
      <circle cx="121" cy="205.2" r="35.8" fill="#06F"/>
      <path fill="#06F" d="M317.3 93.1H284V73.2h87.4v19.9H338v91.4h-20.7V93.1zM441.2 160.6c-1.7 6.4-11.8 25.4-37.4 25.4-23.8 0-41.3-17.5-41.3-42.1 0-24.6 17.5-42.1 41.3-42.1 22.3 0 39.7 17.5 39.7 40.5 0 2.4-.3 4.3-.5 5.7l-.3 2.2h-60.4c1.7 11.3 10.2 19.1 21.5 19.1 9.4 0 15.1-5.4 16.7-8.7H441.2zM423.7 136.8c-1.7-10.3-8.6-18.3-19.9-18.3-12.1 0-19.1 7.9-21.5 18.3H423.7zM455.5 73.2h19.9v111.3h-19.9V73.2zM565.9 160.6c-1.7 6.4-11.8 25.4-37.4 25.4-23.8 0-41.3-17.5-41.3-42.1 0-24.6 17.5-42.1 41.3-42.1 22.3 0 39.7 17.5 39.7 40.5 0 2.4-.3 4.3-.5 5.7l-.3 2.2h-60.4c1.7 11.3 10.2 19.1 21.5 19.1 9.4 0 15.1-5.4 16.7-8.7H565.9zM548.4 136.8c-1.7-10.3-8.6-18.3-19.9-18.3-12.1 0-19.1 7.9-21.5 18.3H548.4zM586.6 122.5h-13.5v-19.1h13.5V91.5c0-12.1 7.8-19.9 19.9-19.9h17.5v17.5H612c-3.2 0-5.6 2.4-5.6 5.6v8.7h17.5v19.1h-17.5v62h-19.9V122.5zM709.6 143.9c0 24.6-17.5 42.1-41.3 42.1-23.8 0-41.3-17.5-41.3-42.1 0-24.6 17.5-42.1 41.3-42.1C692.1 101.8 709.6 119.3 709.6 143.9zM689.7 143.9c0-14.3-9.5-23.8-21.5-23.8-11.9 0-21.5 9.5-21.5 23.8 0 14.3 9.5 23.8 21.5 23.8C680.2 167.8 689.7 158.3 689.7 143.9zM721.5 103.4h18.3l1.6 7.9h.8c1.4-1.7 3.3-3.3 5.4-4.8 3.7-2.4 9.2-4.8 16.9-4.8 18.3 0 31.8 13.5 31.8 34.2v48.5h-19.9v-46.9c0-10.3-7.2-17.5-17.5-17.5-10.3 0-17.5 7.2-17.5 17.5v46.9h-19.9V103.4zM922.6 154.3c-2.5 12.7-12.6 31.8-38.1 31.8-23.8 0-41.3-17.5-41.3-42.1 0-24.6 17.5-42.1 41.3-42.1 25.6 0 35.6 19.1 38.1 31h-19.9c-1.7-4.6-6.4-12.7-18.3-12.7-11.9 0-21.5 9.5-21.5 23.8 0 14.3 9.5 23.8 21.5 23.8 11.9 0 16.5-7.9 18.3-13.5H922.6zM982.7 176.5h-.8c-1.4 1.7-3.3 3.3-5.6 4.8-3.8 2.4-9.4 4.8-17.5 4.8-18.4 0-29.4-11.3-29.4-24.6 0-15.9 11.1-27 33.4-27h18.3v-1.6c0-8.9-5.4-15.1-14.3-15.1-8.9 0-13.5 5.7-14.3 10.3h-19.9c1.7-13.4 12.6-26.2 34.2-26.2 20.7 0 34.2 13.7 34.2 31v51.7h-16.7L982.7 176.5zM981.1 149.5h-16.7c-10.3 0-15.1 4-15.1 10.3 0 6.4 4.6 10.3 12.7 10.3 12.1 0 19.1-7 19.1-18.3V149.5zM811.4 103.4h19.9v81.1h-19.9V103.4z"/>
      <circle cx="821.3" cy="80" r="11.8" fill="#06F"/>
      <path fill="#06F" d="M675.4 69.2L696 69.2 677 92.3 660.3 92.3z"/>
    </g>
  </switch>
</svg>
